<svg width="217" height="145" viewBox="0 0 217 145" fill="none" xmlns="http://www.w3.org/2000/svg">
<path d="M9.56725 64.576C7.94592 64.576 6.70858 64.128 5.85525 63.232C5.00192 62.336 4.57525 61.0773 4.57525 59.456V23.936C4.57525 22.272 5.00192 21.0133 5.85525 20.16C6.75125 19.3067 8.00992 18.88 9.63125 18.88H25.1833C30.2179 18.88 34.1006 20.16 36.8313 22.72C39.5619 25.2373 40.9273 28.7573 40.9273 33.28C40.9273 37.8027 39.5619 41.344 36.8313 43.904C34.1006 46.464 30.2179 47.744 25.1833 47.744H14.4953V59.456C14.4953 61.0773 14.0686 62.336 13.2153 63.232C12.4046 64.128 11.1886 64.576 9.56725 64.576ZM14.4953 40.064H23.5193C26.0793 40.064 28.0206 39.488 29.3433 38.336C30.7086 37.184 31.3913 35.4987 31.3913 33.28C31.3913 31.0613 30.7086 29.3973 29.3433 28.288C28.0206 27.1787 26.0793 26.624 23.5193 26.624H14.4953V40.064ZM52.2297 64.704C49.9257 64.704 47.8564 64.256 46.0217 63.36C44.1871 62.464 42.7577 61.248 41.7337 59.712C40.7097 58.176 40.1977 56.448 40.1977 54.528C40.1977 52.224 40.7951 50.4107 41.9897 49.088C43.1844 47.7227 45.1257 46.7627 47.8137 46.208C50.5017 45.6107 54.0644 45.312 58.5018 45.312H61.8938V50.304H58.5658C56.3898 50.304 54.6191 50.432 53.2537 50.688C51.9311 50.9013 50.9711 51.2853 50.3737 51.84C49.8191 52.3947 49.5417 53.1627 49.5417 54.144C49.5417 55.3387 49.9471 56.32 50.7577 57.088C51.6111 57.856 52.8271 58.24 54.4058 58.24C55.6431 58.24 56.7311 57.9627 57.6698 57.408C58.6511 56.8107 59.4191 56.0213 59.9738 55.04C60.5284 54.016 60.8057 52.864 60.8057 51.584V44.224C60.8057 42.3467 60.3791 41.024 59.5258 40.256C58.6724 39.4453 57.2218 39.04 55.1737 39.04C54.0218 39.04 52.7631 39.1893 51.3977 39.488C50.0751 39.744 48.6031 40.192 46.9817 40.832C46.0431 41.2587 45.2111 41.3653 44.4857 41.152C43.7604 40.896 43.2057 40.4693 42.8217 39.872C42.4377 39.232 42.2457 38.5493 42.2457 37.824C42.2457 37.056 42.4591 36.3307 42.8857 35.648C43.3124 34.9227 44.0164 34.3893 44.9977 34.048C47.0031 33.2373 48.8804 32.6827 50.6298 32.384C52.4218 32.0853 54.0644 31.936 55.5578 31.936C58.8431 31.936 61.5311 32.4267 63.6217 33.408C65.7551 34.3467 67.3551 35.8187 68.4218 37.824C69.4884 39.7867 70.0218 42.3253 70.0218 45.44V59.648C70.0218 61.2267 69.6378 62.4427 68.8698 63.296C68.1018 64.1493 66.9924 64.576 65.5417 64.576C64.0911 64.576 62.9604 64.1493 62.1497 63.296C61.3818 62.4427 60.9978 61.2267 60.9978 59.648V57.28L61.4458 57.664C61.1898 59.1147 60.6351 60.3733 59.7817 61.44C58.9711 62.464 57.9258 63.2747 56.6458 63.872C55.3657 64.4267 53.8937 64.704 52.2297 64.704ZM89.3267 64.704C85.9134 64.704 82.9267 64.0427 80.3667 62.72C77.8494 61.3547 75.9081 59.4347 74.5427 56.96C73.1774 54.4853 72.4947 51.5627 72.4947 48.192C72.4947 45.6747 72.8787 43.4133 73.6467 41.408C74.4147 39.4027 75.5241 37.696 76.9747 36.288C78.4681 34.88 80.2601 33.8133 82.3507 33.088C84.4414 32.32 86.7667 31.936 89.3267 31.936C90.6494 31.936 92.0574 32.1067 93.5507 32.448C95.0441 32.7467 96.5161 33.28 97.9667 34.048C98.8201 34.432 99.3961 34.9867 99.6947 35.712C100.036 36.3947 100.164 37.12 100.079 37.888C99.9934 38.6133 99.7161 39.2747 99.2467 39.872C98.8201 40.4267 98.2654 40.8107 97.5828 41.024C96.9001 41.1947 96.1321 41.0667 95.2787 40.64C94.4681 40.1707 93.6147 39.8293 92.7188 39.616C91.8654 39.4027 91.0547 39.296 90.2867 39.296C89.0067 39.296 87.8761 39.5093 86.8947 39.936C85.9134 40.32 85.0814 40.896 84.3987 41.664C83.7587 42.3893 83.2467 43.3067 82.8627 44.416C82.5214 45.5253 82.3507 46.8053 82.3507 48.256C82.3507 51.072 83.0334 53.2907 84.3987 54.912C85.8067 56.4907 87.7694 57.28 90.2867 57.28C91.0547 57.28 91.8654 57.1947 92.7188 57.024C93.5721 56.8107 94.4254 56.4693 95.2787 56C96.1321 55.5733 96.9001 55.4667 97.5828 55.68C98.2654 55.8933 98.7988 56.2987 99.1828 56.896C99.6094 57.4507 99.8441 58.112 99.8867 58.88C99.9721 59.6053 99.8441 60.3307 99.5028 61.056C99.2041 61.7387 98.6494 62.272 97.8387 62.656C96.3881 63.3813 94.9374 63.8933 93.4867 64.192C92.0361 64.5333 90.6494 64.704 89.3267 64.704ZM117.088 64.704C113.376 64.704 110.176 64.0427 107.488 62.72C104.843 61.3547 102.795 59.456 101.344 57.024C99.9363 54.5493 99.2323 51.648 99.2323 48.32C99.2323 45.0773 99.9149 42.24 101.28 39.808C102.646 37.3333 104.544 35.4133 106.976 34.048C109.451 32.64 112.246 31.936 115.36 31.936C117.622 31.936 119.67 32.32 121.504 33.088C123.339 33.8133 124.918 34.88 126.24 36.288C127.563 37.6533 128.566 39.3387 129.248 41.344C129.931 43.3067 130.272 45.504 130.272 47.936C130.272 48.7467 130.016 49.3653 129.504 49.792C128.992 50.176 128.246 50.368 127.264 50.368H107.168V45.376H123.296L122.272 46.272C122.272 44.5227 122.016 43.072 121.504 41.92C120.992 40.7253 120.246 39.8293 119.264 39.232C118.326 38.6347 117.152 38.336 115.744 38.336C114.166 38.336 112.822 38.6987 111.712 39.424C110.603 40.1493 109.75 41.1947 109.152 42.56C108.555 43.9253 108.256 45.568 108.256 47.488V48C108.256 51.2427 109.003 53.632 110.496 55.168C112.032 56.704 114.294 57.472 117.28 57.472C118.304 57.472 119.478 57.344 120.8 57.088C122.123 56.832 123.36 56.4267 124.512 55.872C125.494 55.4027 126.368 55.2533 127.136 55.424C127.904 55.552 128.502 55.8933 128.928 56.448C129.355 57.0027 129.59 57.6427 129.632 58.368C129.718 59.0933 129.568 59.8187 129.184 60.544C128.8 61.2267 128.16 61.8027 127.264 62.272C125.814 63.0827 124.171 63.68 122.336 64.064C120.544 64.4907 118.795 64.704 117.088 64.704Z" fill="#FCF9F8"/>
<path d="M138.133 64.576C136.683 64.576 135.573 64.1707 134.805 63.36C134.037 62.5493 133.653 61.4187 133.653 59.968V22.912C133.653 21.4613 134.059 20.3307 134.869 19.52C135.723 18.7093 136.875 18.304 138.325 18.304C139.605 18.304 140.608 18.56 141.333 19.072C142.101 19.5413 142.805 20.3733 143.445 21.568L158.229 48.576H156.053L170.837 21.568C171.477 20.3733 172.16 19.5413 172.885 19.072C173.653 18.56 174.656 18.304 175.893 18.304C177.344 18.304 178.453 18.7093 179.221 19.52C180.032 20.3307 180.437 21.4613 180.437 22.912V59.968C180.437 61.4187 180.053 62.5493 179.285 63.36C178.517 64.1707 177.408 64.576 175.957 64.576C174.507 64.576 173.376 64.1707 172.565 63.36C171.797 62.5493 171.413 61.4187 171.413 59.968V34.048H172.821L160.917 55.36C160.405 56.1707 159.851 56.7893 159.253 57.216C158.699 57.6 157.952 57.792 157.013 57.792C156.075 57.792 155.307 57.5787 154.709 57.152C154.112 56.7253 153.579 56.128 153.109 55.36L141.077 33.984H142.613V59.968C142.613 61.4187 142.229 62.5493 141.461 63.36C140.736 64.1707 139.627 64.576 138.133 64.576ZM201.876 64.704C198.164 64.704 194.964 64.0427 192.276 62.72C189.63 61.3547 187.582 59.456 186.132 57.024C184.724 54.5493 184.02 51.648 184.02 48.32C184.02 45.0773 184.702 42.24 186.068 39.808C187.433 37.3333 189.332 35.4133 191.764 34.048C194.238 32.64 197.033 31.936 200.148 31.936C202.409 31.936 204.457 32.32 206.292 33.088C208.126 33.8133 209.705 34.88 211.028 36.288C212.35 37.6533 213.353 39.3387 214.036 41.344C214.718 43.3067 215.06 45.504 215.06 47.936C215.06 48.7467 214.804 49.3653 214.292 49.792C213.78 50.176 213.033 50.368 212.052 50.368H191.956V45.376H208.084L207.06 46.272C207.06 44.5227 206.804 43.072 206.292 41.92C205.78 40.7253 205.033 39.8293 204.052 39.232C203.113 38.6347 201.94 38.336 200.532 38.336C198.953 38.336 197.609 38.6987 196.5 39.424C195.39 40.1493 194.537 41.1947 193.94 42.56C193.342 43.9253 193.044 45.568 193.044 47.488V48C193.044 51.2427 193.79 53.632 195.284 55.168C196.82 56.704 199.081 57.472 202.068 57.472C203.092 57.472 204.265 57.344 205.588 57.088C206.91 56.832 208.148 56.4267 209.3 55.872C210.281 55.4027 211.156 55.2533 211.924 55.424C212.692 55.552 213.289 55.8933 213.716 56.448C214.142 57.0027 214.377 57.6427 214.42 58.368C214.505 59.0933 214.356 59.8187 213.972 60.544C213.588 61.2267 212.948 61.8027 212.052 62.272C210.601 63.0827 208.958 63.68 207.124 64.064C205.332 64.4907 203.582 64.704 201.876 64.704Z" fill="#F57357"/>
<path d="M102.962 113.602C102.962 98.3577 158.814 85.9998 174.058 85.9998C189.302 85.9998 201.66 98.3577 201.66 113.602C201.66 128.846 189.302 141.204 174.058 141.204C161.09 141.204 145.517 118.356 118.79 112.391C108.989 110.204 102.958 116.914 102.962 113.602Z" fill="url(#paint0_linear_143_1655)"/>
<path d="M112.699 116.626C112.699 131.87 56.8464 144.228 41.6021 144.228C26.3579 144.228 14 131.87 14 116.626C14 101.381 26.3579 89.0234 41.6021 89.0234C54.57 89.0234 70.1428 111.871 96.87 117.837C106.671 120.024 112.702 113.313 112.699 116.626Z" fill="url(#paint1_linear_143_1655)"/>
<defs>
<linearGradient id="paint0_linear_143_1655" x1="174.52" y1="141.789" x2="137.579" y2="93.5391" gradientUnits="userSpaceOnUse">
<stop stop-color="#F57357"/>
<stop offset="0.5" stop-color="#FA9C6B"/>
<stop offset="1" stop-color="#FEC57F"/>
</linearGradient>
<linearGradient id="paint1_linear_143_1655" x1="41.1404" y1="88.4389" x2="78.0814" y2="136.688" gradientUnits="userSpaceOnUse">
<stop stop-color="#F57357"/>
<stop offset="0.5" stop-color="#FA9C6B"/>
<stop offset="1" stop-color="#FEC57F"/>
</linearGradient>
</defs>
</svg>
