<svg width="360" height="253" viewBox="0 0 360 253" fill="none" xmlns="http://www.w3.org/2000/svg">
<path d="M31.6009 102.864C29.1689 102.864 27.3129 102.192 26.0329 100.848C24.7529 99.504 24.1129 97.616 24.1129 95.184V41.904C24.1129 39.408 24.7529 37.52 26.0329 36.24C27.3769 34.96 29.2649 34.32 31.6969 34.32H55.0249C62.5769 34.32 68.4009 36.24 72.4969 40.08C76.5929 43.856 78.6409 49.136 78.6409 55.92C78.6409 62.704 76.5929 68.016 72.4969 71.856C68.4009 75.696 62.5769 77.616 55.0249 77.616H38.9929V95.184C38.9929 97.616 38.3529 99.504 37.0729 100.848C35.8569 102.192 34.0329 102.864 31.6009 102.864ZM38.9929 66.096H52.5289C56.3689 66.096 59.2809 65.232 61.2649 63.504C63.3129 61.776 64.3369 59.248 64.3369 55.92C64.3369 52.592 63.3129 50.096 61.2649 48.432C59.2809 46.768 56.3689 45.936 52.5289 45.936H38.9929V66.096ZM95.5946 103.056C92.1386 103.056 89.0346 102.384 86.2826 101.04C83.5306 99.696 81.3866 97.872 79.8506 95.568C78.3146 93.264 77.5466 90.672 77.5466 87.792C77.5466 84.336 78.4426 81.616 80.2346 79.632C82.0266 77.584 84.9386 76.144 88.9706 75.312C93.0026 74.416 98.3466 73.968 105.003 73.968H110.091V81.456H105.099C101.835 81.456 99.1786 81.648 97.1306 82.032C95.1466 82.352 93.7066 82.928 92.8106 83.76C91.9786 84.592 91.5626 85.744 91.5626 87.216C91.5626 89.008 92.1706 90.48 93.3866 91.632C94.6666 92.784 96.4906 93.36 98.8586 93.36C100.715 93.36 102.347 92.944 103.755 92.112C105.227 91.216 106.379 90.032 107.211 88.56C108.043 87.024 108.459 85.296 108.459 83.376V72.336C108.459 69.52 107.819 67.536 106.539 66.384C105.259 65.168 103.083 64.56 100.011 64.56C98.2826 64.56 96.3946 64.784 94.3466 65.232C92.3626 65.616 90.1546 66.288 87.7226 67.248C86.3146 67.888 85.0666 68.048 83.9786 67.728C82.8906 67.344 82.0586 66.704 81.4826 65.808C80.9066 64.848 80.6186 63.824 80.6186 62.736C80.6186 61.584 80.9386 60.496 81.5786 59.472C82.2186 58.384 83.2746 57.584 84.7466 57.072C87.7546 55.856 90.5706 55.024 93.1946 54.576C95.8826 54.128 98.3466 53.904 100.587 53.904C105.515 53.904 109.547 54.64 112.683 56.112C115.883 57.52 118.283 59.728 119.883 62.736C121.483 65.68 122.283 69.488 122.283 74.16V95.472C122.283 97.84 121.707 99.664 120.555 100.944C119.403 102.224 117.739 102.864 115.563 102.864C113.387 102.864 111.691 102.224 110.475 100.944C109.323 99.664 108.747 97.84 108.747 95.472V91.92L109.419 92.496C109.035 94.672 108.203 96.56 106.923 98.16C105.707 99.696 104.139 100.912 102.219 101.808C100.299 102.64 98.0906 103.056 95.5946 103.056ZM151.24 103.056C146.12 103.056 141.64 102.064 137.8 100.08C134.024 98.032 131.112 95.152 129.064 91.44C127.016 87.728 125.992 83.344 125.992 78.288C125.992 74.512 126.568 71.12 127.72 68.112C128.872 65.104 130.536 62.544 132.712 60.432C134.952 58.32 137.64 56.72 140.776 55.632C143.912 54.48 147.4 53.904 151.24 53.904C153.224 53.904 155.336 54.16 157.576 54.672C159.816 55.12 162.024 55.92 164.2 57.072C165.48 57.648 166.344 58.48 166.792 59.568C167.304 60.592 167.496 61.68 167.368 62.832C167.24 63.92 166.824 64.912 166.12 65.808C165.48 66.64 164.648 67.216 163.624 67.536C162.6 67.792 161.448 67.6 160.168 66.96C158.952 66.256 157.672 65.744 156.328 65.424C155.048 65.104 153.832 64.944 152.68 64.944C150.76 64.944 149.064 65.264 147.592 65.904C146.12 66.48 144.872 67.344 143.848 68.496C142.888 69.584 142.12 70.96 141.544 72.624C141.032 74.288 140.776 76.208 140.776 78.384C140.776 82.608 141.8 85.936 143.848 88.368C145.96 90.736 148.904 91.92 152.68 91.92C153.832 91.92 155.048 91.792 156.328 91.536C157.608 91.216 158.888 90.704 160.168 90C161.448 89.36 162.6 89.2 163.624 89.52C164.648 89.84 165.448 90.448 166.024 91.344C166.664 92.176 167.016 93.168 167.08 94.32C167.208 95.408 167.016 96.496 166.504 97.584C166.056 98.608 165.224 99.408 164.008 99.984C161.832 101.072 159.656 101.84 157.48 102.288C155.304 102.8 153.224 103.056 151.24 103.056ZM192.882 103.056C187.314 103.056 182.514 102.064 178.482 100.08C174.514 98.032 171.442 95.184 169.266 91.536C167.154 87.824 166.098 83.472 166.098 78.48C166.098 73.616 167.122 69.36 169.17 65.712C171.218 62 174.066 59.12 177.714 57.072C181.426 54.96 185.618 53.904 190.29 53.904C193.682 53.904 196.754 54.48 199.506 55.632C202.258 56.72 204.626 58.32 206.61 60.432C208.594 62.48 210.098 65.008 211.122 68.016C212.146 70.96 212.658 74.256 212.658 77.904C212.658 79.12 212.274 80.048 211.506 80.688C210.738 81.264 209.618 81.552 208.146 81.552H178.002V74.064H202.194L200.658 75.408C200.658 72.784 200.274 70.608 199.506 68.88C198.738 67.088 197.618 65.744 196.146 64.848C194.738 63.952 192.978 63.504 190.866 63.504C188.498 63.504 186.482 64.048 184.818 65.136C183.154 66.224 181.874 67.792 180.978 69.84C180.082 71.888 179.634 74.352 179.634 77.232V78C179.634 82.864 180.754 86.448 182.994 88.752C185.298 91.056 188.69 92.208 193.17 92.208C194.706 92.208 196.466 92.016 198.45 91.632C200.434 91.248 202.29 90.64 204.018 89.808C205.49 89.104 206.802 88.88 207.954 89.136C209.106 89.328 210.002 89.84 210.642 90.672C211.282 91.504 211.634 92.464 211.698 93.552C211.826 94.64 211.602 95.728 211.026 96.816C210.45 97.84 209.49 98.704 208.146 99.408C205.97 100.624 203.506 101.52 200.754 102.096C198.066 102.736 195.442 103.056 192.882 103.056ZM224.45 102.864C222.274 102.864 220.61 102.256 219.458 101.04C218.306 99.824 217.73 98.128 217.73 95.952V40.368C217.73 38.192 218.338 36.496 219.554 35.28C220.834 34.064 222.562 33.456 224.738 33.456C226.658 33.456 228.162 33.84 229.25 34.608C230.402 35.312 231.458 36.56 232.418 38.352L254.594 78.864H251.33L273.506 38.352C274.466 36.56 275.49 35.312 276.578 34.608C277.73 33.84 279.234 33.456 281.09 33.456C283.266 33.456 284.93 34.064 286.082 35.28C287.298 36.496 287.906 38.192 287.906 40.368V95.952C287.906 98.128 287.33 99.824 286.178 101.04C285.026 102.256 283.362 102.864 281.186 102.864C279.01 102.864 277.314 102.256 276.098 101.04C274.946 99.824 274.37 98.128 274.37 95.952V57.072H276.482L258.626 89.04C257.858 90.256 257.026 91.184 256.13 91.824C255.298 92.4 254.178 92.688 252.77 92.688C251.362 92.688 250.21 92.368 249.314 91.728C248.418 91.088 247.618 90.192 246.914 89.04L228.866 56.976H231.17V95.952C231.17 98.128 230.594 99.824 229.442 101.04C228.354 102.256 226.69 102.864 224.45 102.864ZM320.064 103.056C314.496 103.056 309.696 102.064 305.664 100.08C301.696 98.032 298.624 95.184 296.448 91.536C294.336 87.824 293.28 83.472 293.28 78.48C293.28 73.616 294.304 69.36 296.352 65.712C298.4 62 301.248 59.12 304.896 57.072C308.608 54.96 312.8 53.904 317.472 53.904C320.864 53.904 323.936 54.48 326.688 55.632C329.44 56.72 331.808 58.32 333.792 60.432C335.776 62.48 337.28 65.008 338.304 68.016C339.328 70.96 339.84 74.256 339.84 77.904C339.84 79.12 339.456 80.048 338.688 80.688C337.92 81.264 336.8 81.552 335.328 81.552H305.184V74.064H329.376L327.84 75.408C327.84 72.784 327.456 70.608 326.688 68.88C325.92 67.088 324.8 65.744 323.328 64.848C321.92 63.952 320.16 63.504 318.048 63.504C315.68 63.504 313.664 64.048 312 65.136C310.336 66.224 309.056 67.792 308.16 69.84C307.264 71.888 306.816 74.352 306.816 77.232V78C306.816 82.864 307.936 86.448 310.176 88.752C312.48 91.056 315.872 92.208 320.352 92.208C321.888 92.208 323.648 92.016 325.632 91.632C327.616 91.248 329.472 90.64 331.2 89.808C332.672 89.104 333.984 88.88 335.136 89.136C336.288 89.328 337.184 89.84 337.824 90.672C338.464 91.504 338.816 92.464 338.88 93.552C339.008 94.64 338.784 95.728 338.208 96.816C337.632 97.84 336.672 98.704 335.328 99.408C333.152 100.624 330.688 101.52 327.936 102.096C325.248 102.736 322.624 103.056 320.064 103.056Z" fill="#FCF9F8"/>
<path d="M171.725 177.456C171.725 151.8 265.727 131.001 291.384 131.001C317.041 131.001 337.84 151.8 337.84 177.456C337.84 203.113 317.041 223.912 291.384 223.912C269.559 223.912 243.349 185.458 198.366 175.418C181.871 171.737 171.72 183.031 171.725 177.456Z" fill="#FCF9F8"/>
<path d="M188.114 182.548C188.114 208.204 94.1125 229.003 68.4557 229.003C42.7989 229.003 22 208.204 22 182.548C22 156.891 42.7989 136.092 68.4557 136.092C90.2812 136.092 116.491 174.546 161.474 184.586C177.969 188.267 188.12 176.972 188.114 182.548Z" fill="#FCF9F8"/>
</svg>
